<svg xmlns="http://www.w3.org/2000/svg" xmlns:xlink="http://www.w3.org/1999/xlink" width="2080" zoomAndPan="magnify" viewBox="0 0 1560 1559.999932" height="2080" preserveAspectRatio="xMidYMid meet" version="1.0"><defs><g/></defs><g fill="#ffffff" fill-opacity="1"><g transform="translate(90.344536, 1010.069749)"><g><path d="M 401.078125 -101.203125 L 180.8125 -101.203125 L 139.890625 0 L -10.421875 0 L 219.515625 -520.875 L 364.609375 -520.875 L 595.28125 0 L 442 0 Z M 357.921875 -209.84375 L 290.953125 -376.515625 L 223.984375 -209.84375 Z M 357.921875 -209.84375 "/></g></g></g><g fill="#ffffff" fill-opacity="1"><g transform="translate(675.166142, 1010.069749)"><g><path d="M 35.71875 -266.390625 L 253 -266.390625 L 253 -157.75 L 35.71875 -157.75 Z M 35.71875 -266.390625 "/></g></g></g><g fill="#ffffff" fill-opacity="1"><g transform="translate(963.85678, 1010.069749)"><g><path d="M 492.59375 -116.828125 L 492.59375 0 L 26.046875 0 L 26.046875 -92.265625 L 288.71875 -404.046875 L 32.734375 -404.046875 L 32.734375 -520.875 L 481.4375 -520.875 L 481.4375 -428.609375 L 218.765625 -116.828125 Z M 492.59375 -116.828125 "/></g></g></g></svg>